<?xml version="1.0" encoding="UTF-8"?>
<svg width="80px" height="60px" viewBox="0 0 80 60" version="1.1" xmlns="http://www.w3.org/2000/svg" xmlns:xlink="http://www.w3.org/1999/xlink">
    <title>Group Copy</title>
    <g id="V2" stroke="none" stroke-width="1" fill="none" fill-rule="evenodd">
        <g id="VL-Automated-Live_Create-New-Popup" transform="translate(-939.000000, -275.000000)">
            <g id="Group-Copy" transform="translate(939.000000, 275.000000)">
                <rect id="Rectangle" stroke="#C8CED5" fill="#FFFFFF" x="0.5" y="0.5" width="79" height="59"></rect>
                <g id="tools-and-utensils" transform="translate(18.000000, 6.000000)">
                    <path d="M25.977562,8.24359716 C26.1653126,8.03002586 26.4621477,7.94757606 26.7336559,8.03358227 L26.7336559,8.03358227 L42.5005411,13.0339368 C42.7309258,13.1069755 42.9088393,13.2908648 42.9737082,13.5229966 C43.038577,13.7551284 42.9816576,14.0042134 42.8223289,14.185447 L42.8223289,14.185447 L38.2191151,19.4293902 L42.8201788,24.6733334 C42.9795076,24.8545669 43.036427,25.1036519 42.9715581,25.3357838 C42.9066892,25.5679156 42.7287758,25.7518048 42.498391,25.8248436 L42.498391,25.8248436 L37.9833285,27.2578023 L37.9833285,41.5738172 C37.9834189,41.8742072 37.7949565,42.14256 37.5117553,42.2452934 L37.5117553,42.2452934 L21.74487,47.9599843 L21.74487,47.9599843 L21.7291032,47.9599843 C21.5808975,48.0133386 21.4186358,48.0133386 21.2704301,47.9599843 L21.2704301,47.9599843 L21.2546632,47.9599843 L5.48777803,42.2452934 C5.20457676,42.14256 5.0161144,41.8742072 5.01620482,41.5738172 L5.01620482,41.5738172 L5.01620482,27.2578023 L0.501142238,25.8248436 C0.270398855,25.7523146 0.0919462291,25.5686398 0.0266247969,25.33644 C-0.0386966353,25.1042402 0.017932112,24.8548645 0.177204415,24.6733334 L0.177204415,24.6733334 L4.78041822,19.4293902 L0.179354445,14.185447 C0.0200257214,14.0042134 -0.0368937397,13.7551284 0.0279751475,13.5229966 C0.0928440346,13.2908648 0.270757503,13.1069755 0.501142238,13.0339368 L0.501142238,13.0339368 L16.2680275,8.03358227 C16.5388913,7.94851173 16.8346012,8.03088324 17.0219712,8.24359716 L17.0219712,8.24359716 L21.4997666,13.3439587 Z M22.2164432,15.4062478 L22.2164432,21.5723992 C22.2164432,21.9669163 21.8955762,22.2867356 21.4997666,22.2867356 C21.1039571,22.2867356 20.78309,21.9669163 20.78309,21.5723992 L20.78309,21.5723992 L20.78309,15.4062478 L8.09791421,19.4293902 L21.4997666,23.6796915 L34.9016191,19.4293902 L22.2164432,15.4062478 Z" id="Combined-Shape" fill="#C8CED5" fill-rule="nonzero"></path>
                    <polygon id="Path" fill="#FFFFFF" fill-rule="nonzero" points="26.746556 9.53583163 41.0234706 14.0647241 37.0365987 18.607189 22.7596841 14.0790109"></polygon>
                    <polygon id="Path" fill="#FFFFFF" fill-rule="nonzero" points="16.2529772 9.53583163 20.2398492 14.0782965 5.96293461 18.607189 1.97606268 14.0647241"></polygon>
                    <polygon id="Path" fill="#FFFFFF" fill-rule="nonzero" points="5.96293461 20.250877 20.2398492 24.7797695 16.2529772 29.3222344 1.97606268 24.7940562"></polygon>
                    <path d="M36.5499753,41.0737818 L22.2164432,46.2684358 L22.2164432,33.001781 L21.4997666,33.001781 L20.78309,33.001781 L20.78309,46.2684358 L6.44955802,41.0737818 L6.44955802,27.7156919 L16.2680275,30.8287698 C16.3377094,30.8497832 16.410238,30.859904 16.4830304,30.8587719 C16.6894928,30.8587425 16.8859126,30.7699653 17.0219712,30.6151832 L20.78309,26.329165 L20.78309,33.001781 L21.4997666,33.001781 L22.2164432,33.001781 L22.2164432,26.3305937 L25.977562,30.6166119 C26.1138839,30.7708635 26.310267,30.8591034 26.5165028,30.8587719 C26.589479,30.858702 26.6620048,30.8473767 26.7315058,30.8251981 L36.5499753,27.7156919 L36.5499753,41.0737818 Z" id="Path" fill="#FFFFFF" fill-rule="nonzero"></path>
                    <polygon id="Path" fill="#FFFFFF" fill-rule="nonzero" points="26.746556 29.3222344 22.7596841 24.7797695 37.0365987 20.2515913 41.0234706 24.7940562"></polygon>
                    <g id="Group-2-Copy" transform="translate(17.000000, 0.000000)">
                        <rect id="Rectangle-Copy-4" stroke="#FFFFFF" fill="#C8CED5" x="-0.5" y="-0.5" width="20" height="14"></rect>
                        <polygon id="Path-2" fill="#FFFFFF" points="8 4 8 9 12 6.5"></polygon>
                    </g>
                    <g id="Group-2-Copy-2" transform="translate(3.000000, 3.000000)">
                        <rect id="Rectangle-Copy-4" stroke="#FFFFFF" fill="#C8CED5" x="-0.5" y="-0.5" width="20" height="14"></rect>
                        <rect id="Rectangle" fill="#FFFFFF" x="4" y="3" width="11" height="1"></rect>
                        <rect id="Rectangle-Copy" fill="#FFFFFF" x="4" y="5" width="11" height="1"></rect>
                        <rect id="Rectangle-Copy-2" fill="#FFFFFF" x="4" y="7" width="11" height="1"></rect>
                        <rect id="Rectangle-Copy-3" fill="#FFFFFF" x="4" y="9" width="11" height="1"></rect>
                    </g>
                    <g id="Group-2-Copy-3" transform="translate(10.000000, 11.000000)">
                        <rect id="Rectangle-Copy-4" fill="#FFFFFF" x="0" y="0" width="22" height="13"></rect>
                        <rect id="Rectangle-Copy-5" fill="#C8CED5" x="1" y="1" width="20" height="13"></rect>
                        <polygon id="Path-2" fill="#FFFFFF" points="10 5 10 10 14 7.5"></polygon>
                    </g>
                    <path d="M5.8026515,19.6754784 L1.09558573,25.0393436 L16.4132445,29.8976123 L21.1203632,24.5345304 L5.8026515,19.6754784 Z" id="Path-Copy-2" stroke="#C8CED5" fill="#FFFFFF" fill-rule="nonzero" stroke-linejoin="round"></path>
                    <path d="M37.196866,19.6762133 L21.8791451,24.5345018 L26.5862887,29.8976123 L41.9040096,25.0393239 L37.196866,19.6762133 Z" id="Path-Copy" stroke="#C8CED5" fill="#FFFFFF" fill-rule="nonzero" stroke-linejoin="round"></path>
                </g>
            </g>
        </g>
    </g>
</svg>